<svg width="100%" height="100%" id="svg" viewBox="0 0 1440 590" xmlns="http://www.w3.org/2000/svg" class="transition duration-300 ease-in-out delay-150"><defs><linearGradient id="gradient" x1="0%" y1="50%" x2="100%" y2="50%"><stop offset="5%" stop-color="#407bff"></stop><stop offset="95%" stop-color="#0693e3"></stop></linearGradient></defs><path d="M 0,600 L 0,150 C 101.84358974358975,142.68974358974359 203.6871794871795,135.37948717948717 268,143 C 332.3128205128205,150.62051282051283 359.0948717948718,173.17179487179487 441,160 C 522.9051282051282,146.82820512820513 659.9333333333333,97.93333333333334 753,114 C 846.0666666666667,130.06666666666666 895.1717948717949,211.09487179487178 966,222 C 1036.8282051282051,232.90512820512822 1129.3794871794871,173.6871794871795 1212,150 C 1294.6205128205129,126.31282051282051 1367.3102564102564,138.15641025641025 1440,150 L 1440,600 L 0,600 Z" stroke="none" stroke-width="0" fill="url(#gradient)" fill-opacity="0.53" class="transition-all duration-300 ease-in-out delay-150 path-0" transform="rotate(-180 720 300)"></path><defs><linearGradient id="gradient" x1="0%" y1="50%" x2="100%" y2="50%"><stop offset="5%" stop-color="#407bff"></stop><stop offset="95%" stop-color="#0693e3"></stop></linearGradient></defs><path d="M 0,600 L 0,350 C 61.92564102564103,366.1461538461538 123.85128205128206,382.29230769230765 209,380 C 294.14871794871794,377.70769230769235 402.52051282051275,356.97692307692313 479,329 C 555.4794871794873,301.02307692307687 600.0666666666666,265.79999999999995 679,281 C 757.9333333333334,296.20000000000005 871.2128205128206,361.82307692307694 971,397 C 1070.7871794871794,432.17692307692306 1157.0820512820512,436.90769230769234 1233,424 C 1308.9179487179488,411.09230769230766 1374.4589743589745,380.54615384615386 1440,350 L 1440,600 L 0,600 Z" stroke="none" stroke-width="0" fill="url(#gradient)" fill-opacity="1" class="transition-all duration-300 ease-in-out delay-150 path-1" transform="rotate(-180 720 300)"></path></svg>